<svg width="52" height="49" viewBox="0 0 52 49" fill="none" xmlns="http://www.w3.org/2000/svg">
<g clip-path="url(#clip0_2826_956)">
<path d="M27.5 14C27.5 13.1703 26.8297 12.5 26 12.5C25.1703 12.5 24.5 13.1703 24.5 14V25.3766L21.0594 21.9359C20.4734 21.35 19.5219 21.35 18.9359 21.9359C18.35 22.5219 18.35 23.4734 18.9359 24.0594L24.9359 30.0594C25.5219 30.6453 26.4734 30.6453 27.0594 30.0594L33.0594 24.0594C33.6453 23.4734 33.6453 22.5219 33.0594 21.9359C32.4734 21.35 31.5219 21.35 30.9359 21.9359L27.5 25.3766V14ZM14 29C14 29 14 30.3453 14 32V36.5C14 36.5 15.3453 36.5 17 36.5H35C36.6547 36.5 38 36.5 38 36.5V29C38 29 36.6547 29 35 29H30.2422L28.1188 31.1234C26.9469 32.2953 25.0484 32.2953 23.8766 31.1234L21.7578 29H14ZM34.25 31.625C34.5484 31.625 34.8345 31.7435 35.0455 31.9545C35.2565 32.1655 35.375 32.4516 35.375 32.75C35.375 33.0484 35.2565 33.3345 35.0455 33.5455C34.8345 33.7565 34.5484 33.875 34.25 33.875C33.9516 33.875 33.6655 33.7565 33.4545 33.5455C33.2435 33.3345 33.125 33.0484 33.125 32.75C33.125 32.4516 33.2435 32.1655 33.4545 31.9545C33.6655 31.7435 33.9516 31.625 34.25 31.625Z" fill="#607B96"/>
</g>
<defs>
<clipPath id="clip0_2826_956">
<rect width="24" height="24" fill="white" transform="translate(14 12.5)"/>
</clipPath>
</defs>
</svg>
