<svg width="16" height="14" viewBox="0 0 16 14" fill="none" xmlns="http://www.w3.org/2000/svg">
<path d="M15.0802 4.29116V12.9578C15.0802 13.1494 15.0041 13.3331 14.8687 13.4685C14.7332 13.604 14.5495 13.6801 14.358 13.6801H1.35796C1.16642 13.6801 0.982719 13.604 0.847276 13.4685C0.711833 13.3331 0.635742 13.1494 0.635742 12.9578V3.56894H14.358C14.5495 3.56894 14.7332 3.64503 14.8687 3.78048C15.0041 3.91592 15.0802 4.09962 15.0802 4.29116ZM8.15696 2.1245H0.635742V1.40228C0.635742 1.21073 0.711833 1.02703 0.847276 0.891588C0.982719 0.756145 1.16642 0.680054 1.35796 0.680054H6.71252L8.15696 2.1245Z" fill="#43D9AD"/>
</svg>
