<svg width="52" height="49" viewBox="0 0 52 49" fill="none" xmlns="http://www.w3.org/2000/svg">
<path d="M14 17.3572C14 15.7813 14 14.5 14 14.5L37.9997 14.5C37.9997 14.5 37.9997 15.7813 37.9997 17.3572L38 34.5C38 34.5 36.6544 34.5 34.9997 34.5H17C15.3453 34.5 14 34.5 14 34.5V17.3572ZM29.1779 22.1116C28.967 21.817 28.6201 21.6429 28.2498 21.6429C27.8795 21.6429 27.528 21.817 27.3217 22.1116L23.2436 27.808L22.0015 26.3303C21.7858 26.0759 21.4624 25.9286 21.1249 25.9286C20.7874 25.9286 20.4593 26.0759 20.2484 26.3303L17.2484 29.9018C16.9765 30.2232 16.925 30.6652 17.1125 31.0357C17.3 31.4062 17.6937 31.6428 18.1249 31.6428H22.6249H24.1249H33.8748C34.2919 31.6428 34.6763 31.4241 34.8685 31.0714C35.0607 30.7187 35.0372 30.2946 34.8029 29.9687L29.1779 22.1116ZM19.2499 21.6429C19.8467 21.6429 20.419 21.4171 20.8409 21.0152C21.2629 20.6134 21.4999 20.0683 21.4999 19.5C21.4999 18.9317 21.2629 18.3866 20.8409 17.9848C20.419 17.5829 19.8467 17.3572 19.2499 17.3572C18.6532 17.3572 18.0809 17.5829 17.659 17.9848C17.237 18.3866 17 18.9317 17 19.5C17 20.0683 17.237 20.6134 17.659 21.0152C18.0809 21.4171 18.6532 21.6429 19.2499 21.6429Z" fill="#607B96"/>
</svg>
