<svg width="16" height="14" viewBox="0 0 16 14" fill="none" xmlns="http://www.w3.org/2000/svg">
<path d="M15.0802 3.80459V12.4713C15.0802 12.6628 15.0041 12.8465 14.8687 12.9819C14.7332 13.1174 14.5495 13.1935 14.358 13.1935H1.35796C1.16642 13.1935 0.982719 13.1174 0.847276 12.9819C0.711833 12.8465 0.635742 12.6628 0.635742 12.4713V3.08237H14.358C14.5495 3.08237 14.7332 3.15846 14.8687 3.2939C15.0041 3.42935 15.0802 3.61305 15.0802 3.80459ZM8.15696 1.63793H0.635742V0.915704C0.635742 0.724158 0.711833 0.540458 0.847276 0.405015C0.982719 0.269572 1.16642 0.193481 1.35796 0.193481H6.71252L8.15696 1.63793Z" fill="#3A49A4"/>
</svg>
