<svg width="52" height="49" viewBox="0 0 52 49" fill="none" xmlns="http://www.w3.org/2000/svg">
<path d="M13.4 12.5H38.6C38.9713 12.5 39.3274 12.6405 39.59 12.8905C39.8525 13.1406 40 13.4797 40 13.8333V35.1667C40 35.5203 39.8525 35.8594 39.59 36.1095C39.3274 36.3595 38.9713 36.5 38.6 36.5H13.4C13.0287 36.5 12.6726 36.3595 12.4101 36.1095C12.1475 35.8594 12 35.5203 12 35.1667V13.8333C12 13.4797 12.1475 13.1406 12.4101 12.8905C12.6726 12.6405 13.0287 12.5 13.4 12.5ZM19 29.1667V23.8333L21.8 26.5L24.6 23.8333V29.1667H27.4V19.8333H24.6L21.8 22.5L19 19.8333H16.2V29.1667H19ZM34.4 25.1667V19.8333H31.6V25.1667H28.8L33 29.1667L37.2 25.1667H34.4Z" fill="#607B96"/>
</svg>
